<svg xmlns="http://www.w3.org/2000/svg" version="1.1" xmlns:xlink="http://www.w3.org/1999/xlink" xmlns:svgjs="http://svgjs.dev/svgjs" width="1000" height="1000" viewBox="0 0 1000 1000"><rect width="1000" height="1000" fill="#fce44d"></rect><g transform="matrix(0.7,0,0,0.7,149.6201456815092,279.3288259109312)"><svg viewBox="0 0 391 247" data-background-color="#fce44d" preserveAspectRatio="xMidYMid meet" height="631" width="1000" xmlns="http://www.w3.org/2000/svg" xmlns:xlink="http://www.w3.org/1999/xlink"><g id="tight-bounds" transform="matrix(1,0,0,1,0.2121757693284394,-0.09999999999999432)"><svg viewBox="0 0 390.5756484613431 247.2" height="247.2" width="390.5756484613431"><g><svg viewBox="0 0 395.52 250.32933923343904" height="247.2" width="390.5756484613431"><g transform="matrix(1,0,0,1,0,182.70871332857982)"><svg viewBox="0 0 395.52 67.62062590485922" height="67.62062590485922" width="395.52"><g id="textblocktransform"><svg viewBox="0 0 395.52 67.62062590485922" height="67.62062590485922" width="395.52" id="textblock"><g><svg viewBox="0 0 395.52 39.76059412334517" height="39.76059412334517" width="395.52"><g transform="matrix(1,0,0,1,0,0)"><svg width="395.52" viewBox="3.25 -35.5 464.510009765625 46.70000076293945" height="39.76059412334517" data-palette-color="#374151"><path d="M19.03 8.85Q16.85 10.3 15.18 10.75 13.5 11.2 11.48 11.2 9.45 11.2 7.78 9.85 6.1 8.5 6.1 6.55 6.1 4.6 7.08 3.23 8.05 1.85 9.9 0.9L9.9 0.9Q13.15-0.8 18.1-1.85L18.1-1.85Q18.45-2.65 19.25-5.5L19.25-5.5Q17.25-4.45 14.23-3.55 11.2-2.65 8.85-2.65 6.5-2.65 4.88-4.23 3.25-5.8 3.25-8.58 3.25-11.35 5.08-18.68 6.9-26 6.9-29.15L6.9-29.15Q6.9-30.1 6.4-31.18 5.9-32.25 5.4-32.9L5.4-32.9 4.95-33.5 5.1-34.5Q8.2-35.5 15.8-35.5L15.8-35.5Q16.75-33.85 16.75-31.08 16.75-28.3 14.85-20.45 12.95-12.6 12.95-11.15L12.95-11.15Q12.95-8.65 14.7-8.65L14.7-8.65Q17.1-8.65 20.45-10.45L20.45-10.45Q22.1-17.45 23.25-24.2 24.4-30.95 24.4-34L24.4-34Q26-34.65 28.7-35.05 31.4-35.45 33.15-35.45L33.15-35.45 34.25-35.45Q34.25-31.6 32.2-21.9L32.2-21.9Q31.45-18.55 30.03-11.98 28.6-5.4 26.78-1.28 24.95 2.85 23.08 5.13 21.2 7.4 19.03 8.85ZM9.8 5.65L9.8 5.65Q9.8 6.75 11.25 6.75 12.7 6.75 14.45 5.08 16.2 3.4 16.95 1.65L16.95 1.65Q14.05 2.1 11.93 3.23 9.8 4.35 9.8 5.65ZM38.25-0.65L38.25-0.65Q37.9 0.45 35.92 0.45 33.95 0.45 32-0.9L32-0.9Q33.55-5.1 38.17-14.88 42.8-24.65 44.35-29.45L44.35-29.45Q44.5-30.05 44.5-30.48 44.5-30.9 44.15-31.65 43.8-32.4 43.4-32.85L43.4-32.85 43.05-33.3 43.25-34.3Q47.7-35.5 53.8-35.5L53.8-35.5 57.65-35.3Q58.15-34.85 58.65-32.95 59.15-31.05 59.3-27.25 59.45-23.45 59.5-13L59.5-13Q59.55-4.95 61.5-4.95L61.5-4.95Q62-4.95 63.65-5.45L63.65-5.45 64.15-5.6 65.2-2.75Q63.15-1.2 60.4-0.3 57.65 0.6 55.45 0.6L55.45 0.6Q52.25 0.6 51.07-1.38 49.9-3.35 49.9-6.48 49.9-9.6 49.95-10.8L49.95-10.8Q49-11 46.25-11 43.5-11 41.5-10.45L41.5-10.45Q39.65-5.5 38.25-0.65ZM43.3-15L50.15-15Q50.4-19.35 50.4-23.75 50.4-28.15 49.9-30.15L49.9-30.15Q49.4-30.15 49.2-30.05L49.2-30.05Q48.1-26.7 43.3-15L43.3-15ZM81 0.6L81 0.6Q77.65 0.6 74.7-0.7L74.7-0.7Q72.14 0.25 69.22 0.25 66.3 0.25 66.09 0.2L66.09 0.2Q66.09-3.25 68.84-14.73 71.59-26.2 71.59-27.78 71.59-29.35 71.02-30.6 70.45-31.85 69.84-32.5L69.84-32.5 69.3-33.1 69.45-34.25Q70.89-34.6 75.27-35.05 79.65-35.5 82.84-35.5L82.84-35.5Q90.55-35.5 94.27-32.33 98-29.15 98-22.15L98-22.15Q98-16.7 96.02-11.58 94.05-6.45 90.05-2.93 86.05 0.6 81 0.6ZM83.55-31.95L83.55-31.95Q82.65-31.95 81.59-31.8L81.59-31.8Q81.45-28.9 79.05-18.48 76.65-8.05 76.09-4.2L76.09-4.2Q77-3.75 78.25-3.75L78.25-3.75Q80.9-3.75 82.97-6.15 85.05-8.55 86.15-12.15L86.15-12.15Q88.3-19.45 88.3-25.4L88.3-25.4Q88.3-29 87.22-30.48 86.15-31.95 83.55-31.95ZM102.84-0.65L102.84-0.65Q102.49 0.45 100.52 0.45 98.54 0.45 96.59-0.9L96.59-0.9Q98.14-5.1 102.77-14.88 107.39-24.65 108.94-29.45L108.94-29.45Q109.09-30.05 109.09-30.48 109.09-30.9 108.74-31.65 108.39-32.4 107.99-32.85L107.99-32.85 107.64-33.3 107.84-34.3Q112.29-35.5 118.39-35.5L118.39-35.5 122.24-35.3Q122.74-34.85 123.24-32.95 123.74-31.05 123.89-27.25 124.04-23.45 124.09-13L124.09-13Q124.14-4.95 126.09-4.95L126.09-4.95Q126.59-4.95 128.24-5.45L128.24-5.45 128.74-5.6 129.79-2.75Q127.74-1.2 124.99-0.3 122.24 0.6 120.04 0.6L120.04 0.6Q116.84 0.6 115.67-1.38 114.49-3.35 114.49-6.48 114.49-9.6 114.54-10.8L114.54-10.8Q113.59-11 110.84-11 108.09-11 106.09-10.45L106.09-10.45Q104.24-5.5 102.84-0.65ZM107.89-15L114.74-15Q114.99-19.35 114.99-23.75 114.99-28.15 114.49-30.15L114.49-30.15Q113.99-30.15 113.79-30.05L113.79-30.05Q112.69-26.7 107.89-15L107.89-15ZM160.89-6.35L160.89-6.35Q160.89-4.95 161.54-4.95L161.54-4.95Q162.64-4.95 164.24-5.6L164.24-5.6 165.34-2.8Q160.74 0.6 156.44 0.6L156.44 0.6Q153.94 0.6 152.46-0.83 150.99-2.25 150.99-4.85 150.99-7.45 153.54-16.63 156.09-25.8 156.34-29.4L156.34-29.4Q156.34-30.25 155.79-31.25 155.24-32.25 154.74-32.85L154.74-32.85 154.19-33.45 154.29-34.45Q157.44-35.5 165.44-35.5L165.44-35.5Q166.24-34 166.24-32.3L166.24-32.3Q166.24-29.4 163.56-19.65 160.89-9.9 160.89-6.35ZM169.58 0.3L169.58 0.3 168.73 0.3Q168.73-2.7 171.53-15 174.33-27.3 174.33-29.25L174.33-29.25Q174.33-30.1 173.81-31.15 173.28-32.2 172.78-32.8L172.78-32.8 172.28-33.45 172.43-34.45Q175.53-35.5 183.23-35.5L183.23-35.5Q184.13-33.6 184.13-31.2L184.13-31.2 184.13-31.1Q190.13-35.5 194.63-35.5L194.63-35.5Q197.28-35.5 198.98-33.93 200.68-32.35 200.68-29.43 200.68-26.5 198.38-17.65 196.08-8.8 196.08-6.88 196.08-4.95 196.73-4.95L196.73-4.95Q197.63-4.95 199.43-5.6L199.43-5.6 200.48-2.75Q195.58 0.6 191.38 0.6L191.38 0.6Q188.98 0.6 187.71-0.68 186.43-1.95 186.43-4.9 186.43-7.85 188.61-16.13 190.78-24.4 190.78-26.4L190.78-26.4Q190.78-28.95 188.53-28.95L188.53-28.95Q186.88-28.95 183.58-26.9L183.58-26.9Q183.13-24.5 181.68-18.6L181.68-18.6Q178.48-5.15 178.48-1L178.48-1Q176.28 0.3 169.58 0.3ZM204.03 0.3L204.03 0.3 203.18 0.3Q203.18-2.7 205.98-15 208.78-27.3 208.78-29.25L208.78-29.25Q208.78-30.1 208.26-31.15 207.73-32.2 207.23-32.8L207.23-32.8 206.73-33.45 206.88-34.45Q209.98-35.5 217.68-35.5L217.68-35.5Q218.58-33.6 218.58-31.2L218.58-31.2 218.58-31.1Q224.58-35.5 229.08-35.5L229.08-35.5Q231.73-35.5 233.43-33.93 235.13-32.35 235.13-29.43 235.13-26.5 232.83-17.65 230.53-8.8 230.53-6.88 230.53-4.95 231.18-4.95L231.18-4.95Q232.08-4.95 233.88-5.6L233.88-5.6 234.93-2.75Q230.03 0.6 225.83 0.6L225.83 0.6Q223.43 0.6 222.16-0.68 220.88-1.95 220.88-4.9 220.88-7.85 223.06-16.13 225.23-24.4 225.23-26.4L225.23-26.4Q225.23-28.95 222.98-28.95L222.98-28.95Q221.33-28.95 218.03-26.9L218.03-26.9Q217.58-24.5 216.13-18.6L216.13-18.6Q212.93-5.15 212.93-1L212.93-1Q210.73 0.3 204.03 0.3ZM266.38-31.08Q267.83-29.05 268.53-26.8 269.23-24.55 269.23-21.45 269.23-18.35 268.15-14.55 267.08-10.75 264.95-7.28 262.83-3.8 259.08-1.6 255.33 0.6 250.53 0.6L250.53 0.6Q244.68 0.6 241.33-3.35 237.98-7.3 237.98-13.3 237.98-19.3 240.25-24.28 242.53-29.25 246.75-32.38 250.98-35.5 256.18-35.5L256.18-35.5Q259.68-35.5 262.3-34.3 264.93-33.1 266.38-31.08ZM249.63-3.9L249.63-3.9Q250.53-3.2 252.25-3.2 253.98-3.2 255.5-5.23 257.03-7.25 257.88-10.45L257.88-10.45Q259.48-16.75 259.48-23.5L259.48-23.5Q259.48-31.7 255.48-31.7L255.48-31.7Q253.58-31.7 252.05-29.93 250.53-28.15 249.63-25.3L249.63-25.3Q247.78-19.5 247.78-12.85L247.78-12.85Q247.78-5.4 249.63-3.9ZM274.08-6.4L274.08-6.4Q274.08-8.4 274.95-14.6 275.83-20.8 275.83-24.2 275.83-27.6 275.53-28.8L275.53-28.8Q275.03-30.5 273.53-32.7L273.53-32.7 273.03-33.35 273.23-34.35Q278.03-35.35 285.43-35.35L285.43-35.35Q286.28-33.65 286.28-31.2L286.28-31.2Q286.28-26.4 285.03-18.6 283.78-10.8 283.78-9.45L283.78-9.45Q283.78-6.6 285.08-6.6L285.08-6.6Q286.58-6.6 288.88-9.18 291.18-11.75 293.05-15.68 294.93-19.6 295.18-22.9L295.18-22.9 289.83-26.5Q290.23-29.4 291.28-31.58 292.33-33.75 293.28-34.6 294.23-35.45 294.78-35.45L294.78-35.45Q297.98-35.45 299.78-33.58 301.58-31.7 301.58-29.2L301.58-29.2Q301.58-25.45 299.65-20.3 297.73-15.15 294.78-10.53 291.83-5.9 287.88-2.65 283.93 0.6 280.65 0.6 277.38 0.6 275.73-1.35 274.08-3.3 274.08-6.4ZM304.22-0.65L304.22-0.65Q303.87 0.45 301.9 0.45 299.92 0.45 297.97-0.9L297.97-0.9Q299.52-5.1 304.15-14.88 308.77-24.65 310.32-29.45L310.32-29.45Q310.47-30.05 310.47-30.48 310.47-30.9 310.12-31.65 309.77-32.4 309.37-32.85L309.37-32.85 309.02-33.3 309.22-34.3Q313.67-35.5 319.77-35.5L319.77-35.5 323.62-35.3Q324.12-34.85 324.62-32.95 325.12-31.05 325.27-27.25 325.42-23.45 325.47-13L325.47-13Q325.52-4.95 327.47-4.95L327.47-4.95Q327.97-4.95 329.62-5.45L329.62-5.45 330.12-5.6 331.17-2.75Q329.12-1.2 326.37-0.3 323.62 0.6 321.42 0.6L321.42 0.6Q318.22 0.6 317.05-1.38 315.87-3.35 315.87-6.48 315.87-9.6 315.92-10.8L315.92-10.8Q314.97-11 312.22-11 309.47-11 307.47-10.45L307.47-10.45Q305.62-5.5 304.22-0.65ZM309.27-15L316.12-15Q316.37-19.35 316.37-23.75 316.37-28.15 315.87-30.15L315.87-30.15Q315.37-30.15 315.17-30.05L315.17-30.05Q314.07-26.7 309.27-15L309.27-15ZM336.77 0.35L336.77 0.35 335.62 0.35Q335.62-3.8 337.97-14.8 340.32-25.8 340.6-27.98 340.87-30.15 340.92-31.25L340.92-31.25Q336.22-31.15 333.42-29.8L333.42-29.8Q331.97-31.45 331.62-34.65L331.62-34.65Q334.07-35.5 340.02-35.5L340.02-35.5 355.77-35Q356.92-35 359.42-35.1L359.42-35.1Q359.62-33.5 359.62-32.4L359.62-32.4Q359.62-30.05 356.67-30.05L356.67-30.05Q355.77-30.05 353.85-30.35 351.92-30.65 350.47-30.7L350.47-30.7Q350.32-29.1 347.9-17.7 345.47-6.3 345.47-0.95L345.47-0.95Q343.27 0.35 336.77 0.35ZM368.72-6.35L368.72-6.35Q368.72-4.95 369.37-4.95L369.37-4.95Q370.47-4.95 372.07-5.6L372.07-5.6 373.17-2.8Q368.57 0.6 364.27 0.6L364.27 0.6Q361.77 0.6 360.29-0.83 358.82-2.25 358.82-4.85 358.82-7.45 361.37-16.63 363.92-25.8 364.17-29.4L364.17-29.4Q364.17-30.25 363.62-31.25 363.07-32.25 362.57-32.85L362.57-32.85 362.02-33.45 362.12-34.45Q365.27-35.5 373.27-35.5L373.27-35.5Q374.07-34 374.07-32.3L374.07-32.3Q374.07-29.4 371.39-19.65 368.72-9.9 368.72-6.35ZM405.32-31.08Q406.77-29.05 407.47-26.8 408.17-24.55 408.17-21.45 408.17-18.35 407.09-14.55 406.02-10.75 403.89-7.28 401.77-3.8 398.02-1.6 394.27 0.6 389.47 0.6L389.47 0.6Q383.62 0.6 380.27-3.35 376.92-7.3 376.92-13.3 376.92-19.3 379.19-24.28 381.47-29.25 385.69-32.38 389.92-35.5 395.12-35.5L395.12-35.5Q398.62-35.5 401.24-34.3 403.87-33.1 405.32-31.08ZM388.57-3.9L388.57-3.9Q389.47-3.2 391.19-3.2 392.92-3.2 394.44-5.23 395.97-7.25 396.82-10.45L396.82-10.45Q398.42-16.75 398.42-23.5L398.42-23.5Q398.42-31.7 394.42-31.7L394.42-31.7Q392.52-31.7 390.99-29.93 389.47-28.15 388.57-25.3L388.57-25.3Q386.72-19.5 386.72-12.85L386.72-12.85Q386.72-5.4 388.57-3.9ZM411.16 0.3L411.16 0.3 410.31 0.3Q410.31-2.7 413.11-15 415.91-27.3 415.91-29.25L415.91-29.25Q415.91-30.1 415.39-31.15 414.86-32.2 414.36-32.8L414.36-32.8 413.86-33.45 414.01-34.45Q417.11-35.5 424.81-35.5L424.81-35.5Q425.71-33.6 425.71-31.2L425.71-31.2 425.71-31.1Q431.71-35.5 436.21-35.5L436.21-35.5Q438.86-35.5 440.56-33.93 442.26-32.35 442.26-29.43 442.26-26.5 439.96-17.65 437.66-8.8 437.66-6.88 437.66-4.95 438.31-4.95L438.31-4.95Q439.21-4.95 441.01-5.6L441.01-5.6 442.06-2.75Q437.16 0.6 432.96 0.6L432.96 0.6Q430.56 0.6 429.29-0.68 428.01-1.95 428.01-4.9 428.01-7.85 430.19-16.13 432.36-24.4 432.36-26.4L432.36-26.4Q432.36-28.95 430.11-28.95L430.11-28.95Q428.46-28.95 425.16-26.9L425.16-26.9Q424.71-24.5 423.26-18.6L423.26-18.6Q420.06-5.15 420.06-1L420.06-1Q417.86 0.3 411.16 0.3ZM466.36-9.15L466.36-9.15Q466.36-5 462.39-2.2 458.41 0.6 453.16 0.6L453.16 0.6Q449.06 0.6 446.24-1.15 443.41-2.9 443.41-4.5L443.41-4.5Q444.21-6.45 446.46-8.7 448.71-10.95 450.61-11.05L450.61-11.05Q451.86-10.5 452.94-8.33 454.01-6.15 454.66-3.3L454.66-3.3Q457.36-3.4 457.36-6.35L457.36-6.35Q457.36-8.3 455.89-11.13 454.41-13.95 452.66-16.4 450.91-18.85 449.44-21.85 447.96-24.85 447.96-27.1L447.96-27.1Q447.96-30.8 451.36-33.15 454.76-35.5 458.94-35.5 463.11-35.5 465.44-33.7 467.76-31.9 467.76-29.55L467.76-29.55Q467.76-27.6 466.96-26.43 466.16-25.25 465.69-24.63 465.21-24 464.41-23.3L464.41-23.3Q462.91-22 462.11-21.4L462.11-21.4 461.36-20.85Q464.31-17.2 465.81-12.35L465.81-12.35Q466.36-10.6 466.36-9.15ZM463.76-29.2L463.76-29.2Q463.76-31.55 460.76-31.55L460.76-31.55Q459.01-31.55 457.94-30.8 456.86-30.05 456.86-28.93 456.86-27.8 457.79-26.2 458.71-24.6 459.26-23.95L459.26-23.95Q460.46-24.55 462.11-26.15 463.76-27.75 463.76-29.2Z" opacity="1" transform="matrix(1,0,0,1,0,0)" fill="#374151" class="undefined-text-0" data-fill-palette-color="primary" id="text-0"></path></svg></g></svg></g><g transform="matrix(1,0,0,1,75.54432,49.14711614160801)"><svg viewBox="0 0 244.43135999999998 18.473509763251222" height="18.473509763251222" width="244.43135999999998"><g transform="matrix(1,0,0,1,0,0)"><svg width="244.43135999999998" viewBox="1.7300000190734863 -38.0099983215332 509.3699951171875 38.5" height="18.473509763251222" data-palette-color="#374151"><path d="M6.2-35.55L10.62-11.21 11.08-7.23 11.79-10.74 17.48-35.55 21.22-35.55 26.73-10.74 27.44-7.13 27.95-11.23 32.3-35.55 36.77-35.55 29.69 0 25.66 0 19.73-25.9 19.36-28 18.99-25.9 12.84 0 8.79 0 1.73-35.55 6.2-35.55ZM45.63-37.5L45.63-23.71Q48.09-26.9 51.93-26.9L51.93-26.9Q58.93-26.9 59.03-17.55L59.03-17.55 59.03 0 54.73 0 54.73-17.36Q54.73-20.46 53.7-21.77 52.66-23.07 50.58-23.07L50.58-23.07Q48.97-23.07 47.69-22 46.41-20.92 45.63-19.19L45.63-19.19 45.63 0 41.31 0 41.31-37.5 45.63-37.5ZM74.9 0.49L74.9 0.49Q69.97 0.49 67.33-2.45 64.69-5.4 64.64-11.08L64.64-11.08 64.64-14.28Q64.64-20.19 67.22-23.55 69.79-26.9 74.41-26.9L74.41-26.9Q79.05-26.9 81.34-23.95 83.64-21 83.69-14.75L83.69-14.75 83.69-11.91 68.94-11.91 68.94-11.3Q68.94-7.06 70.54-5.13 72.14-3.2 75.14-3.2L75.14-3.2Q77.05-3.2 78.5-3.92 79.95-4.64 81.22-6.2L81.22-6.2 83.47-3.47Q80.66 0.49 74.9 0.49ZM74.41-23.19L74.41-23.19Q71.72-23.19 70.43-21.35 69.14-19.51 68.96-15.63L68.96-15.63 79.37-15.63 79.37-16.21Q79.19-19.97 78.01-21.58 76.83-23.19 74.41-23.19ZM99.75-26.56L99.77-22.36Q98.87-22.53 97.82-22.53L97.82-22.53Q94.5-22.53 93.18-18.9L93.18-18.9 93.18 0 88.86 0 88.86-26.42 93.06-26.42 93.13-23.73Q94.87-26.9 98.04-26.9L98.04-26.9Q99.06-26.9 99.75-26.56L99.75-26.56ZM113.05 0.49L113.05 0.49Q108.12 0.49 105.48-2.45 102.85-5.4 102.8-11.08L102.8-11.08 102.8-14.28Q102.8-20.19 105.37-23.55 107.95-26.9 112.56-26.9L112.56-26.9Q117.2-26.9 119.5-23.95 121.79-21 121.84-14.75L121.84-14.75 121.84-11.91 107.09-11.91 107.09-11.3Q107.09-7.06 108.69-5.13 110.29-3.2 113.3-3.2L113.3-3.2Q115.2-3.2 116.65-3.92 118.11-4.64 119.37-6.2L119.37-6.2 121.62-3.47Q118.81 0.49 113.05 0.49ZM112.56-23.19L112.56-23.19Q109.88-23.19 108.58-21.35 107.29-19.51 107.12-15.63L107.12-15.63 117.52-15.63 117.52-16.21Q117.35-19.97 116.16-21.58 114.98-23.19 112.56-23.19ZM143.74-35.55L143.74 0 139.27 0 139.27-35.55 143.74-35.55ZM150.06-11.69L150.06-14.4Q150.06-20.51 152.34-23.71 154.62-26.9 158.89-26.9L158.89-26.9Q162.68-26.9 164.8-23.83L164.8-23.83 164.8-37.5 169.12-37.5 169.12 0 165.17 0 164.95-2.83Q162.82 0.49 158.87 0.49L158.87 0.49Q154.77 0.49 152.44-2.7 150.1-5.88 150.06-11.69L150.06-11.69ZM154.38-14.58L154.38-11.94Q154.38-7.5 155.7-5.41 157.01-3.32 159.99-3.32L159.99-3.32Q163.21-3.32 164.8-6.57L164.8-6.57 164.8-19.9Q163.14-23.07 160.02-23.07L160.02-23.07Q157.04-23.07 155.72-20.98 154.4-18.9 154.38-14.58L154.38-14.58ZM185.21 0.49L185.21 0.49Q180.28 0.49 177.64-2.45 175-5.4 174.96-11.08L174.96-11.08 174.96-14.28Q174.96-20.19 177.53-23.55 180.11-26.9 184.72-26.9L184.72-26.9Q189.36-26.9 191.65-23.95 193.95-21 194-14.75L194-14.75 194-11.91 179.25-11.91 179.25-11.3Q179.25-7.06 180.85-5.13 182.45-3.2 185.45-3.2L185.45-3.2Q187.36-3.2 188.81-3.92 190.26-4.64 191.53-6.2L191.53-6.2 193.78-3.47Q190.97 0.49 185.21 0.49ZM184.72-23.19L184.72-23.19Q182.04-23.19 180.74-21.35 179.45-19.51 179.28-15.63L179.28-15.63 189.68-15.63 189.68-16.21Q189.51-19.97 188.32-21.58 187.14-23.19 184.72-23.19ZM217.26 0L212.77 0Q212.38-0.85 212.21-2.88L212.21-2.88Q209.91 0.49 206.35 0.49L206.35 0.49Q202.76 0.49 200.75-1.53 198.73-3.54 198.73-7.2L198.73-7.2Q198.73-11.23 201.47-13.6 204.2-15.97 208.96-16.02L208.96-16.02 212.14-16.02 212.14-18.82Q212.14-21.19 211.09-22.19 210.04-23.19 207.89-23.19L207.89-23.19Q205.93-23.19 204.71-22.03 203.49-20.87 203.49-19.09L203.49-19.09 199.17-19.09Q199.17-21.12 200.37-22.96 201.56-24.8 203.59-25.85 205.62-26.9 208.11-26.9L208.11-26.9Q212.16-26.9 214.27-24.89 216.38-22.88 216.43-19.02L216.43-19.02 216.43-5.69Q216.46-2.64 217.26-0.39L217.26-0.39 217.26 0ZM207.01-3.44L207.01-3.44Q208.6-3.44 210.04-4.32 211.48-5.2 212.14-6.52L212.14-6.52 212.14-12.82 209.69-12.82Q206.62-12.77 204.84-11.44 203.05-10.11 203.05-7.71L203.05-7.71Q203.05-5.47 203.96-4.46 204.86-3.44 207.01-3.44ZM235.96-6.76L235.96-6.76Q235.96-8.15 234.91-9.16 233.86-10.16 230.86-11.5L230.86-11.5Q227.37-12.94 225.94-13.96 224.51-14.99 223.8-16.3 223.1-17.6 223.1-19.41L223.1-19.41Q223.1-22.63 225.45-24.77 227.81-26.9 231.47-26.9L231.47-26.9Q235.33-26.9 237.67-24.66 240.01-22.41 240.01-18.9L240.01-18.9 235.72-18.9Q235.72-20.68 234.52-21.94 233.32-23.19 231.47-23.19L231.47-23.19Q229.56-23.19 228.48-22.2 227.39-21.22 227.39-19.56L227.39-19.56Q227.39-18.24 228.19-17.43 228.98-16.63 232.01-15.31L232.01-15.31Q236.82-13.43 238.55-11.63 240.28-9.84 240.28-7.08L240.28-7.08Q240.28-3.64 237.91-1.57 235.55 0.49 231.57 0.49L231.57 0.49Q227.44 0.49 224.88-1.88 222.31-4.25 222.31-7.89L222.31-7.89 226.66-7.89Q226.73-5.69 228-4.44 229.27-3.2 231.57-3.2L231.57-3.2Q233.72-3.2 234.84-4.16 235.96-5.13 235.96-6.76ZM275.73-11.28L280.24-11.28Q279.95-5.57 277.03-2.54 274.12 0.49 268.79 0.49L268.79 0.49Q263.45 0.49 260.3-3.58 257.15-7.64 257.15-14.6L257.15-14.6 257.15-21.04Q257.15-27.98 260.38-32.01 263.62-36.04 269.21-36.04L269.21-36.04Q274.36-36.04 277.18-32.95 280-29.86 280.24-24.12L280.24-24.12 275.73-24.12Q275.43-28.47 273.9-30.32 272.36-32.18 269.21-32.18L269.21-32.18Q265.57-32.18 263.62-29.33 261.66-26.49 261.66-21L261.66-21 261.66-14.48Q261.66-9.08 263.48-6.2 265.3-3.32 268.79-3.32 272.28-3.32 273.82-5.05 275.36-6.79 275.73-11.28L275.73-11.28ZM284.78-11.55L284.78-14.43Q284.78-20.19 287.58-23.55 290.37-26.9 294.96-26.9 299.55-26.9 302.35-23.63 305.14-20.36 305.22-14.72L305.22-14.72 305.22-11.94Q305.22-6.2 302.43-2.86 299.65 0.49 295.01 0.49L295.01 0.49Q290.42 0.49 287.65-2.76 284.88-6.01 284.78-11.55L284.78-11.55ZM289.1-14.45L289.1-11.94Q289.1-7.86 290.7-5.53 292.3-3.2 295.01-3.2L295.01-3.2Q300.72-3.2 300.9-11.45L300.9-11.45 300.9-14.43Q300.9-18.48 299.28-20.84 297.67-23.19 294.96-23.19L294.96-23.19Q292.3-23.19 290.7-20.84 289.1-18.48 289.1-14.45L289.1-14.45ZM310.8-26.42L314.86-26.42 314.96-23.97Q317.37-26.9 321.33-26.9L321.33-26.9Q325.75-26.9 327.5-23.07L327.5-23.07Q329.99-26.9 334.44-26.9L334.44-26.9Q341.74-26.9 341.91-17.8L341.91-17.8 341.91 0 337.61 0 337.61-17.38Q337.61-20.26 336.59-21.67 335.56-23.07 333.12-23.07L333.12-23.07Q331.17-23.07 329.95-21.56 328.72-20.04 328.53-17.7L328.53-17.7 328.53 0 324.18 0 324.18-17.58Q324.11-23.07 319.72-23.07L319.72-23.07Q316.44-23.07 315.1-19.8L315.1-19.8 315.1 0 310.8 0 310.8-26.42ZM357.85 0.49L357.85 0.49Q352.92 0.49 350.28-2.45 347.64-5.4 347.59-11.08L347.59-11.08 347.59-14.28Q347.59-20.19 350.17-23.55 352.75-26.9 357.36-26.9L357.36-26.9Q362-26.9 364.29-23.95 366.59-21 366.64-14.75L366.64-14.75 366.64-11.91 351.89-11.91 351.89-11.3Q351.89-7.06 353.49-5.13 355.09-3.2 358.09-3.2L358.09-3.2Q360-3.2 361.45-3.92 362.9-4.64 364.17-6.2L364.17-6.2 366.42-3.47Q363.61 0.49 357.85 0.49ZM357.36-23.19L357.36-23.19Q354.67-23.19 353.38-21.35 352.09-19.51 351.92-15.63L351.92-15.63 362.32-15.63 362.32-16.21Q362.15-19.97 360.96-21.58 359.78-23.19 357.36-23.19ZM403.67-35.55L403.67-31.69 394.32-31.69 394.32 0 389.85 0 389.85-31.69 380.52-31.69 380.52-35.55 403.67-35.55ZM404.98-11.55L404.98-14.43Q404.98-20.19 407.78-23.55 410.58-26.9 415.16-26.9 419.75-26.9 422.55-23.63 425.35-20.36 425.42-14.72L425.42-14.72 425.42-11.94Q425.42-6.2 422.64-2.86 419.85 0.49 415.21 0.49L415.21 0.49Q410.62 0.49 407.85-2.76 405.08-6.01 404.98-11.55L404.98-11.55ZM409.31-14.45L409.31-11.94Q409.31-7.86 410.9-5.53 412.5-3.2 415.21-3.2L415.21-3.2Q420.93-3.2 421.1-11.45L421.1-11.45 421.1-14.43Q421.1-18.48 419.49-20.84 417.87-23.19 415.16-23.19L415.16-23.19Q412.5-23.19 410.9-20.84 409.31-18.48 409.31-14.45L409.31-14.45ZM447.53-35.55L447.53-3.83 461.47-3.83 461.47 0 443.04 0 443.04-35.55 447.53-35.55ZM470.85-26.42L470.85 0 466.52 0 466.52-26.42 470.85-26.42ZM471.19-33.42L471.19-33.42Q471.19-32.32 470.58-31.59 469.97-30.86 468.72-30.86L468.72-30.86Q467.5-30.86 466.89-31.59 466.28-32.32 466.28-33.42 466.28-34.52 466.89-35.28 467.5-36.04 468.72-36.04 469.94-36.04 470.57-35.27 471.19-34.5 471.19-33.42ZM483.86 0L479.53 0 479.53-22.92 476.09-22.92 476.09-26.42 479.53-26.42 479.53-29.47Q479.61-33.5 481.57-35.75 483.54-38.01 487.13-38.01L487.13-38.01Q488.42-38.01 489.74-37.6L489.74-37.6 489.52-33.94Q488.59-34.16 487.54-34.16L487.54-34.16Q483.86-34.16 483.86-28.91L483.86-28.91 483.86-26.42 488.37-26.42 488.37-22.92 483.86-22.92 483.86 0ZM502.31 0.49L502.31 0.49Q497.38 0.49 494.74-2.45 492.11-5.4 492.06-11.08L492.06-11.08 492.06-14.28Q492.06-20.19 494.63-23.55 497.21-26.9 501.82-26.9L501.82-26.9Q506.46-26.9 508.76-23.95 511.05-21 511.1-14.75L511.1-14.75 511.1-11.91 496.35-11.91 496.35-11.3Q496.35-7.06 497.95-5.13 499.55-3.2 502.55-3.2L502.55-3.2Q504.46-3.2 505.91-3.92 507.36-4.64 508.63-6.2L508.63-6.2 510.88-3.47Q508.07 0.49 502.31 0.49ZM501.82-23.19L501.82-23.19Q499.14-23.19 497.84-21.35 496.55-19.51 496.38-15.63L496.38-15.63 506.78-15.63 506.78-16.21Q506.61-19.97 505.42-21.58 504.24-23.19 501.82-23.19Z" opacity="1" transform="matrix(1,0,0,1,0,0)" fill="#374151" class="undefined-text-1" data-fill-palette-color="secondary" id="text-1"></path></svg></g></svg></g></svg></g></svg></g><g transform="matrix(1,0,0,1,115.79216535397292,0)"><svg viewBox="0 0 163.93566929205414 163.93566929205414" height="163.93566929205414" width="163.93566929205414"><g><svg></svg></g><g id="icon-0"><svg viewBox="0 0 163.93566929205414 163.93566929205414" height="163.93566929205414" width="163.93566929205414"><g><path d="M0 81.968c0-45.27 36.698-81.968 81.968-81.968 45.27 0 81.968 36.698 81.968 81.968 0 45.27-36.698 81.968-81.968 81.968-45.27 0-81.968-36.698-81.968-81.968zM81.968 160.35c43.289 0 78.382-35.093 78.382-78.382 0-43.289-35.093-78.382-78.382-78.382-43.289 0-78.382 35.093-78.382 78.382 0 43.289 35.093 78.382 78.382 78.382z" data-fill-palette-color="accent" fill="#000000" stroke="transparent"></path><ellipse rx="81.1481562995668" ry="81.1481562995668" cx="81.96783464602707" cy="81.96783464602707" fill="#000000" stroke="transparent" stroke-width="0" fill-opacity="1" data-fill-palette-color="accent"></ellipse></g><g transform="matrix(1,0,0,1,44.61400052538769,35.18521496584874)"><svg viewBox="0 0 74.70766824127877 93.56523936035666" height="93.56523936035666" width="74.70766824127877"><g><svg xmlns="http://www.w3.org/2000/svg" xmlns:xlink="http://www.w3.org/1999/xlink" version="1.1" x="0" y="0" viewBox="60.400001525878906 11 391.2431335449219 490" style="enable-background:new 0 0 512 512;" xml:space="preserve" height="93.56523936035666" width="74.70766824127877" class="icon-s-0" data-fill-palette-color="quaternary" id="s-0"><g fill="#fce44d" data-fill-palette-color="quaternary"><path d="M241.4 58.8c3.3 0 6-2.7 6-6V17c0-3.3-2.7-6-6-6-3.3 0-6 2.7-6 6v35.8C235.4 56.1 238.1 58.8 241.4 58.8z" fill="#fce44d" data-fill-palette-color="quaternary"></path><path d="M366 187.7c0 3.3 2.7 6 6 6h35.8c3.3 0 6-2.7 6-6s-2.7-6-6-6H372C368.7 181.7 366 184.4 366 187.7z" fill="#fce44d" data-fill-palette-color="quaternary"></path><path d="M102.2 181.7H66.4c-3.3 0-6 2.7-6 6s2.7 6 6 6h35.8c3.3 0 6-2.7 6-6S105.5 181.7 102.2 181.7z" fill="#fce44d" data-fill-palette-color="quaternary"></path><path d="M335.1 95.7c1.6 0 3.1-0.6 4.2-1.8l28-28c2.3-2.4 2.3-6.2-0.1-8.5-2.3-2.3-6-2.3-8.4 0l-28 28c-2.3 2.3-2.3 6.1 0 8.5C332 95.1 333.5 95.7 335.1 95.7z" fill="#fce44d" data-fill-palette-color="quaternary"></path><path d="M106.9 66l28 28c2.3 2.4 6.1 2.4 8.5 0.1 2.4-2.3 2.4-6.1 0.1-8.5 0 0 0 0-0.1-0.1l-28-28c-2.3-2.4-6.1-2.4-8.5-0.1C104.5 59.8 104.5 63.6 106.9 66 106.9 66 106.9 66 106.9 66z" fill="#fce44d" data-fill-palette-color="quaternary"></path><circle cx="275.3" cy="402.7" r="6.1" fill="#fce44d" data-fill-palette-color="quaternary"></circle><circle cx="356.6" cy="324.5" r="6.1" fill="#fce44d" data-fill-palette-color="quaternary"></circle><path d="M190.7 403.8v1.7c0 6.6 5.3 11.9 11.9 11.9h34.8c-0.7-4.5-1.2-9.1-1.4-13.6L190.7 403.8z" fill="#fce44d" data-fill-palette-color="quaternary"></path><path d="M397.9 370.5c0-3.3-2.7-6.1-6.1-6.1-3.3 0-6.1 2.7-6.1 6.1 0 3.3 2.7 6.1 6.1 6.1C395.2 376.6 397.9 373.8 397.9 370.5z" fill="#fce44d" data-fill-palette-color="quaternary"></path><path d="M190.7 366.2h14.6c3.3 0 6 2.7 6 6s-2.7 6-6 6h-14.6v13.6h45.5c0.3-4.6 0.9-9.1 1.7-13.6h-14.1c-3.3 0-6-2.7-6-6s2.7-6 6-6h17c1.3-4.4 2.9-8.6 4.7-12.8h-54.9V366.2z" fill="#fce44d" data-fill-palette-color="quaternary"></path><path d="M299.2 297.2c3.8-5.6 8.3-10.8 13.2-15.4 44.6-41.6 47.1-111.5 5.5-156.1-41.6-44.6-111.5-47.1-156.1-5.5-44.6 41.6-47.1 111.5-5.5 156.1 2 2.1 4 4.1 6.1 6.1 16.6 15.3 26.6 36.5 28.1 59h61.2C263 322.4 279.4 307.1 299.2 297.2z" fill="#fce44d" data-fill-palette-color="quaternary"></path><path d="M431.5 338.4c-19.2-25.8-49.5-41.1-81.7-41.1-56.2 0-101.8 45.5-101.8 101.8 0 32.4 15.4 62.9 41.6 82.1v-32.3l-16.5-6.6c-2.3-0.9-3.8-3.1-3.8-5.6v-17.1c-9.4-3.3-14.3-13.6-11-23 3.3-9.4 13.6-14.3 23-11 9.4 3.3 14.3 13.6 11 23-1.8 5.2-5.9 9.2-11 11v13l16.5 6.6c2.3 0.9 3.8 3.1 3.8 5.6v44c5.8 3.1 11.8 5.7 18.1 7.6V411l-16.5-16.5c-1.1-1.1-1.8-2.6-1.8-4.2v-11.9c-9.4-3.3-14.3-13.6-11-23 3.3-9.4 13.6-14.3 23-11 9.4 3.3 14.3 13.6 11 23-1.8 5.2-5.9 9.2-11 11v9.4l16.5 16.5c1.1 1.1 1.8 2.7 1.8 4.2v90.9c1.9 0.3 3.8 0.6 5.8 0.9v-66.7c0-1.6 0.6-3.1 1.8-4.2l11.4-11.4v-76.5c-9.4-3.3-14.3-13.6-11-23 3.3-9.4 13.6-14.3 23-11 9.4 3.3 14.3 13.6 11 23-1.8 5.2-5.9 9.2-11 11v79c0 1.6-0.6 3.1-1.8 4.2l-11.4 11.4V501c0.1 0 0.2 0 0.3 0 4.8 0 9.6-0.3 14.4-1v-51.1c0-1.3 0.4-2.5 1.2-3.5l20.5-28.1v-29.7c-9.4-3.3-14.3-13.6-11-23 3.3-9.4 13.6-14.3 23-11 9.4 3.3 14.3 13.6 11 23-1.8 5.2-5.9 9.2-11 11v31.6c0 1.3-0.4 2.5-1.2 3.5l-20.5 28.1v46.7c7.8-2.1 15.3-5.1 22.3-9v-22.8c0-1.6 0.7-3.2 1.9-4.4l13.8-13.1v-9c-9.4-3.3-14.3-13.6-11-23 3.3-9.4 13.6-14.3 23-11 9.4 3.3 14.3 13.6 11 23-1.8 5.2-5.9 9.2-11 11v11.5c0 1.6-0.7 3.2-1.9 4.4l-13.8 13.1v12.5C455.7 447.3 465.1 383.5 431.5 338.4z" fill="#fce44d" data-fill-palette-color="quaternary"></path><circle cx="420.2" cy="422.3" r="6.1" fill="#fce44d" data-fill-palette-color="quaternary"></circle><path d="M313.4 361.3c0-3.3-2.7-6.1-6.1-6.1-3.3 0-6.1 2.7-6.1 6.1 0 3.3 2.7 6.1 6.1 6.1C310.7 367.4 313.4 364.7 313.4 361.3 313.4 361.3 313.4 361.3 313.4 361.3z" fill="#fce44d" data-fill-palette-color="quaternary"></path></g></svg></g></svg></g></svg></g></svg></g><g></g></svg></g><defs></defs></svg><rect width="390.5756484613431" height="247.2" fill="none" stroke="none" visibility="hidden"></rect></g></svg></g></svg>